<svg width="60" height="60" viewBox="0 0 60 60" fill="none" xmlns="http://www.w3.org/2000/svg">
<path fill-rule="evenodd" clip-rule="evenodd" d="M22.5 11.25C22.9074 11.2501 23.3037 11.3829 23.6289 11.6282C23.9541 11.8736 24.1906 12.2183 24.3025 12.61L26.335 19.725C26.7726 21.2573 27.5936 22.6527 28.7204 23.7796C29.8473 24.9064 31.2427 25.7274 32.775 26.165L39.89 28.1975C40.2815 28.3096 40.6258 28.5462 40.8709 28.8714C41.1161 29.1966 41.2487 29.5928 41.2487 30C41.2487 30.4072 41.1161 30.8034 40.8709 31.1286C40.6258 31.4538 40.2815 31.6904 39.89 31.8025L32.775 33.835C31.2427 34.2726 29.8473 35.0936 28.7204 36.2204C27.5936 37.3473 26.7726 38.7427 26.335 40.275L24.3025 47.39C24.1904 47.7815 23.9538 48.1258 23.6286 48.3709C23.3034 48.6161 22.9072 48.7486 22.5 48.7486C22.0928 48.7486 21.6966 48.6161 21.3714 48.3709C21.0462 48.1258 20.8096 47.7815 20.6975 47.39L18.665 40.275C18.2274 38.7427 17.4064 37.3473 16.2796 36.2204C15.1527 35.0936 13.7573 34.2726 12.225 33.835L5.11 31.8025C4.71851 31.6904 4.37418 31.4538 4.12906 31.1286C3.88393 30.8034 3.75135 30.4072 3.75135 30C3.75135 29.5928 3.88393 29.1966 4.12906 28.8714C4.37418 28.5462 4.71851 28.3096 5.11 28.1975L12.225 26.165C13.7573 25.7274 15.1527 24.9064 16.2796 23.7796C17.4064 22.6527 18.2274 21.2573 18.665 19.725L20.6975 12.61C20.8094 12.2183 21.0459 11.8736 21.3711 11.6282C21.6963 11.3829 22.0926 11.2501 22.5 11.25ZM45 3.75C45.4183 3.74977 45.8246 3.88941 46.1544 4.14672C46.4842 4.40402 46.7185 4.76421 46.82 5.17L47.465 7.76C48.055 10.11 49.89 11.945 52.24 12.535L54.83 13.18C55.2366 13.2807 55.5977 13.5146 55.8558 13.8445C56.114 14.1744 56.2542 14.5811 56.2542 15C56.2542 15.4189 56.114 15.8256 55.8558 16.1555C55.5977 16.4854 55.2366 16.7193 54.83 16.82L52.24 17.465C49.89 18.055 48.055 19.89 47.465 22.24L46.82 24.83C46.7193 25.2366 46.4854 25.5977 46.1555 25.8558C45.8256 26.114 45.4189 26.2542 45 26.2542C44.5812 26.2542 44.1744 26.114 43.8445 25.8558C43.5146 25.5977 43.2807 25.2366 43.18 24.83L42.535 22.24C42.2465 21.0861 41.6499 20.0322 40.8088 19.1912C39.9678 18.3501 38.9139 17.7535 37.76 17.465L35.17 16.82C34.7634 16.7193 34.4023 16.4854 34.1442 16.1555C33.886 15.8256 33.7458 15.4189 33.7458 15C33.7458 14.5811 33.886 14.1744 34.1442 13.8445C34.4023 13.5146 34.7634 13.2807 35.17 13.18L37.76 12.535C38.9139 12.2465 39.9678 11.6499 40.8088 10.8088C41.6499 9.96775 42.2465 8.91393 42.535 7.76L43.18 5.17C43.2815 4.76421 43.5158 4.40402 43.8456 4.14672C44.1754 3.88941 44.5817 3.74977 45 3.75ZM41.25 37.5C41.6438 37.4998 42.0277 37.6235 42.3472 37.8537C42.6667 38.0839 42.9056 38.4089 43.03 38.7825L44.015 41.74C44.39 42.8575 45.265 43.7375 46.385 44.11L49.3425 45.0975C49.7149 45.2225 50.0387 45.4614 50.268 45.7803C50.4974 46.0992 50.6207 46.4822 50.6207 46.875C50.6207 47.2678 50.4974 47.6508 50.268 47.9697C50.0387 48.2886 49.7149 48.5275 49.3425 48.6525L46.385 49.64C45.2675 50.015 44.3875 50.89 44.015 52.01L43.0275 54.9675C42.9025 55.3399 42.6636 55.6636 42.3447 55.893C42.0258 56.1224 41.6428 56.2457 41.25 56.2457C40.8572 56.2457 40.4742 56.1224 40.1553 55.893C39.8364 55.6636 39.5975 55.3399 39.4725 54.9675L38.485 52.01C38.3008 51.4582 37.9908 50.9568 37.5795 50.5455C37.1682 50.1341 36.6668 49.8242 36.115 49.64L33.1575 48.6525C32.7851 48.5275 32.4614 48.2886 32.232 47.9697C32.0026 47.6508 31.8793 47.2678 31.8793 46.875C31.8793 46.4822 32.0026 46.0992 32.232 45.7803C32.4614 45.4614 32.7851 45.2225 33.1575 45.0975L36.115 44.11C37.2325 43.735 38.1125 42.86 38.485 41.74L39.4725 38.7825C39.5968 38.4093 39.8353 38.0846 40.1543 37.8545C40.4733 37.6243 40.8566 37.5003 41.25 37.5Z" fill="#27B4A3"/>
</svg>
