<svg width="21" height="20" viewBox="0 0 21 20" fill="none" xmlns="http://www.w3.org/2000/svg">
<path fill-rule="evenodd" clip-rule="evenodd" d="M3.73204 3.68804C3.73204 3.3009 3.88583 2.92962 4.15958 2.65587C4.43333 2.38212 4.80461 2.22833 5.19175 2.22833H11.886C12.273 2.22867 12.644 2.38269 12.9175 2.65651L16.9288 6.66584C17.0644 6.80156 17.1719 6.96271 17.2452 7.14004C17.3185 7.31737 17.3562 7.50742 17.356 7.69931V16.3388C17.356 16.726 17.2022 17.0972 16.9284 17.371C16.6547 17.6447 16.2834 17.7985 15.8963 17.7985H5.19175C4.80461 17.7985 4.43333 17.6447 4.15958 17.371C3.88583 17.0972 3.73204 16.726 3.73204 16.3388V3.68804ZM14.2974 9.22616C14.4112 9.0695 14.4581 8.87404 14.4278 8.68278C14.3975 8.49152 14.2925 8.32013 14.1358 8.20631C13.9792 8.09249 13.7837 8.04557 13.5925 8.07586C13.4012 8.10616 13.2298 8.21119 13.116 8.36785L9.72656 13.0292L7.89707 11.1997C7.75935 11.0668 7.57495 10.9933 7.38359 10.9951C7.19222 10.9968 7.0092 11.0737 6.87395 11.209C6.73869 11.3444 6.66202 11.5275 6.66045 11.7189C6.65887 11.9103 6.73253 12.0946 6.86554 12.2322L9.29838 14.665C9.37295 14.7396 9.46281 14.7972 9.56176 14.8337C9.66071 14.8703 9.76641 14.8849 9.87157 14.8767C9.97674 14.8685 10.0789 14.8376 10.1709 14.7861C10.263 14.7346 10.3428 14.6637 10.4048 14.5784L14.2974 9.22616Z" fill="white"/>
</svg>
