<svg width="58" height="58" viewBox="0 0 58 58" fill="none" xmlns="http://www.w3.org/2000/svg">
<path fill-rule="evenodd" clip-rule="evenodd" d="M54.4621 42.8562C54.0542 43.2635 53.5014 43.4923 52.9251 43.4923C52.3487 43.4923 51.7959 43.2635 51.3881 42.8562L37.7001 29.1682L26.7729 40.0983C26.5574 40.3138 26.2991 40.4816 26.0146 40.5909C25.7301 40.7001 25.4259 40.7484 25.1216 40.7326C24.8173 40.7167 24.5197 40.6371 24.2481 40.4988C23.9765 40.3606 23.7371 40.1668 23.5452 39.9301C18.5076 33.716 14.7496 26.5665 12.4875 18.8935L7.92286 26.8018C7.63444 27.3018 7.15923 27.6666 6.60178 27.8162C6.04433 27.9658 5.45029 27.8877 4.95036 27.5993C4.45043 27.3109 4.08555 26.8357 3.93599 26.2782C3.78643 25.7208 3.86444 25.1268 4.15286 24.6268L11.3304 12.1974C11.4731 11.9498 11.6632 11.7327 11.8898 11.5585C12.1165 11.3844 12.3752 11.2566 12.6513 11.1826C12.9274 11.1085 13.2153 11.0896 13.4987 11.1269C13.7821 11.1642 14.0554 11.257 14.3029 11.3999L26.7352 18.5774C27.2351 18.8658 27.6 19.3411 27.7495 19.8985C27.8991 20.456 27.8211 21.05 27.5327 21.5499C27.2442 22.0499 26.769 22.4147 26.2116 22.5643C25.6541 22.7139 25.0601 22.6358 24.5602 22.3474L16.7012 17.8089C18.5741 24.0966 21.5311 30.0087 25.4389 35.2785L36.1631 24.5543C36.5709 24.147 37.1237 23.9182 37.7001 23.9182C38.2764 23.9182 38.8292 24.147 39.2371 24.5543L54.4621 39.7793C54.8694 40.1871 55.0981 40.7399 55.0981 41.3163C55.0981 41.8927 54.8694 42.4484 54.4621 42.8562Z" fill="black"/>
</svg>
