<svg width="37" height="37" viewBox="0 0 37 37" fill="none" xmlns="http://www.w3.org/2000/svg">
<path d="M14.8636 1.07397C11.5066 1.74006 8.42595 3.33287 5.94442 5.68951C4.32265 7.23345 3.31749 8.56563 2.36059 10.4185C0.884825 13.2789 0.333374 15.5861 0.333374 18.8525C0.333374 22.119 0.884825 24.4268 2.36059 27.2866C3.31749 29.1395 4.32265 30.4716 5.94442 32.0156C9.33337 35.2495 13.4849 36.8912 18.2525 36.8912C21.4309 36.8912 23.8147 36.3385 26.4416 35.022C27.7551 34.3559 29.5229 33.218 29.5229 33.0232C29.5229 32.958 28.5334 31.9178 27.334 30.7154L25.1445 28.5216L24.1713 29.058C22.3552 30.0656 21.0418 30.4234 18.8848 30.5042C17.2474 30.5694 16.7122 30.5368 15.5604 30.2442C10.2577 28.9114 6.65757 24.3128 6.65757 18.8525C6.65757 12.3196 11.8143 7.152 18.3334 7.152C26.9116 7.152 32.5064 15.9601 28.9551 23.8578L28.5008 24.8817L30.6741 27.0754C31.8578 28.2779 32.9118 29.2529 33.009 29.2529C33.3655 29.2529 34.825 26.5228 35.4579 24.6536C36.0739 22.8497 36.3334 21.0946 36.3334 18.8519C36.3334 15.5855 35.7819 13.2777 34.3062 10.4179C33.3493 8.56502 32.3441 7.23285 30.7223 5.68891C28.2088 3.284 25.1282 1.70748 21.6897 1.05768C20.1012 0.748773 16.4039 0.765063 14.8636 1.07397Z" fill="#2CCEBA"/>
<path d="M18.3628 26.2335C22.396 26.2335 25.6656 22.964 25.6656 18.9307C25.6656 14.8975 22.396 11.6279 18.3628 11.6279C14.3295 11.6279 11.0599 14.8975 11.0599 18.9307C11.0599 22.964 14.3295 26.2335 18.3628 26.2335Z" fill="#2CCEBA"/>
</svg>
