<svg width="35" height="35" viewBox="0 0 35 35" fill="none" xmlns="http://www.w3.org/2000/svg">
<g clip-path="url(#clip0_2_1940)">
<path d="M17.6659 0.224121C8.12248 0.224121 0.38562 7.96077 0.38562 17.5042C0.38562 27.0481 8.12248 34.7841 17.6659 34.7841C27.2104 34.7841 34.9464 27.0481 34.9464 17.5042C34.9464 7.96139 27.2104 0.224946 17.6657 0.224946L17.6659 0.224121ZM25.5906 25.147C25.281 25.6546 24.6166 25.8155 24.109 25.504C20.0517 23.0257 14.9442 22.4644 8.9291 23.8387C8.34946 23.9708 7.77169 23.6076 7.63962 23.0278C7.50694 22.4479 7.86867 21.8702 8.44975 21.7381C15.0323 20.2336 20.6786 20.8817 25.2336 23.6654C25.7412 23.977 25.9022 24.6394 25.5906 25.147ZM27.7056 20.4412C27.3156 21.0757 26.4861 21.2759 25.8526 20.8859C21.2077 18.0302 14.1272 17.2034 8.63319 18.8711C7.92067 19.0863 7.16811 18.6847 6.95186 17.9735C6.73726 17.2609 7.13902 16.5098 7.85031 16.2932C14.126 14.389 21.9279 15.3113 27.262 18.5892C27.8955 18.9792 28.0956 19.8087 27.7056 20.4414V20.4412ZM27.8872 15.5416C22.3179 12.2336 13.1291 11.9295 7.81172 13.5433C6.95784 13.8023 6.05486 13.3203 5.7961 12.4664C5.53734 11.6121 6.01895 10.7098 6.87345 10.4502C12.9775 8.59715 23.1247 8.95517 29.5368 12.7617C30.3065 13.2175 30.5582 14.2094 30.1022 14.9764C29.6482 15.7445 28.6536 15.9977 27.8881 15.5416H27.8872Z" fill="#23D05F"/>
</g>
<defs>
<clipPath id="clip0_2_1940">
<rect width="34.6667" height="34.6667" fill="white" transform="translate(0.333374 0.166992)"/>
</clipPath>
</defs>
</svg>
